<svg width="512" height="512" viewBox="0 0 512 512" fill="none" xmlns="http://www.w3.org/2000/svg">
<g clip-path="url(#clip0_112962_417)">
<path d="M0 256C0 115.2 115.2 0 256 0H512V256C512 396.8 396.8 512 256 512C115.2 512 0 396.8 0 256Z" fill="#8643DC"/>
<path d="M204.8 128C204.8 57.6 262.4 0 332.8 0H512V166.4C512 236.8 454.4 294.4 384 294.4H204.8V128Z" fill="#FF59C1"/>
<path d="M352 407.04H332.8L272.64 234.24L213.76 407.04H193.28L103.68 128H154.88L206.08 293.12L262.4 128H284.16L339.2 294.4L390.4 129.28H441.6L352 407.04Z" fill="white"/>
</g>
<defs>
<clipPath id="clip0_112962_417">
<rect width="512" height="512" fill="white"/>
</clipPath>
</defs>
</svg>
