<svg width="98" height="75" viewBox="0 0 98 75" fill="none" xmlns="http://www.w3.org/2000/svg">
<g clip-path="url(#clip0_112968_346)">
<path d="M97.6 68C82.2 73.3 64.2 75.6 45.5 73.6C50.6 69.8 55.4 65.9 60.1 61.6L58 60.9L55.9 60.1L51.7 58.5L47.6 56.7C46.2 56.1 44.8 55.5 43.5 54.7L39.5 52.6C38.2 51.9 36.9 51.1 35.5 50.3C32.8 48.8 30.3 47 27.7 45.3C17.5 38.1 8.2 29.3 0 19C2.3 19.7 4.6 20.4 6.9 20.9C8 21.2 9.1 21.5 10.3 21.7L13.7 22.4C16 22.8 18.2 23.2 20.4 23.5C22.7 23.8 24.9 24 27.1 24.2C27.5 22 28 19.9 28.5 17.8C29 15.7 29.7 13.6 30.3 11.6C30.6 10.6 31 9.6 31.3 8.6C31.7 7.6 32.1 6.6 32.4 5.6C33.2 3.7 34 1.8 34.8 0C37.3 8.9 41.2 17.9 46.7 26.2C48.1 28.3 49.5 30.4 51 32.4C51.8 33.4 52.5 34.4 53.3 35.4L55.8 38.3C56.6 39.3 57.5 40.2 58.4 41.2L61.1 44L64 46.7L65.4 48.1L66.9 49.4C68.1 43.4 69.7 37.4 71.5 31.6C72.8 34.9 74.3 38 76 41.2C76.9 42.7 77.8 44.3 78.8 45.9C79.8 47.5 80.8 49 81.9 50.5C86.2 56.7 91.5 62.6 97.6 68Z" fill="#202020"/>
</g>
<defs>
<clipPath id="clip0_112968_346">
<rect width="97.7" height="74.3" fill="white"/>
</clipPath>
</defs>
</svg>
