<svg viewBox="0 0 50 50" fill="none" xmlns="http://www.w3.org/2000/svg"><g clip-path="url(#a)" fill-rule="evenodd" clip-rule="evenodd"><path d="M10.05 0h29.9c5.55 0 10.05 4.5 10.05 9.96v29.99c0 5.55-4.5 10.05-10.05 10.05h-29.9c-5.55 0-10.05-4.5-10.05-10.05v-29.99c0-5.46 4.5-9.96 10.05-9.96Z" fill="#4085FE"/><path d="M18.78 16.5h-7.22c-.96 0-1.85.8-1.85 1.85v10.4a4.74 4.74 0 0 0 4.75 4.75h15.34c.96 0 1.85-.88 1.85-1.94v-10.3a4.74 4.74 0 0 0-4.75-4.76h-8.12Zm21.53 15.15c0 1.67-1.24 1.85-2.47.8l-4.07-3.61c-.88-.7-.88-.8-.88-1.85v-4.07c0-1.05 0-1.14.88-1.85l4.07-3.61c1.23-1.05 2.47-.89 2.47.89v13.3Z" fill="#fff"/></g><defs><clipPath id="a"><path fill="#fff" d="M0 0h50v50h-50z"/></clipPath></defs></svg>