<svg xmlns="http://www.w3.org/2000/svg" viewBox="0 0 48 48"><path fill="none" d="M12 32v-16h16v16z"/><path fill="#1e88e5" d="M3 17v14l5 1 5-1v-14l-5-1z"/><path fill="#4caf50" d="M37 24v14a3 3 0 0 1-3 3h-21l-1-5 1-5h14v-7l5-1 5 1z"/><path fill="#fbc02d" d="M37 10v14h-10v-7h-14l-1-5 1-5h21a3 3 0 0 1 3 3z"/><path fill="#1565c0" d="M13 31v10h-7a3 3 0 0 1-3-3v-7h10z"/><path fill="#e53935" d="M13 7v10h-10z"/><path fill="#2e7d32" d="m38 24-1 8.45-10-8.45 10-8.45z"/><path fill="#4caf50" d="M46 10.11v27.78a1 1 0 0 1-1.63.78l-7.37-6.22v-16.9l7.37-6.22a1 1 0 0 1 1.63.78z"/></svg>