<svg xmlns="http://www.w3.org/2000/svg" viewBox="0 0 48 48"><path fill="#9ccc65" d="M17 44c-3.71 0-10-3.16-10-15h3c-.1 1.08-.02 2.08 0 3 .13 7.63 4.35 10 7 10 3.96 0 4-3 4-3.13 0-2.5-1.49-2.87-2.38-2.87-1.57 0-1.62 1.12-1.62 1.25 0 .34.1.75.63.75.2 0 .33-.06.38-.1a1 1 0 0 1 1.99.1c0 .98-.89 2-2.38 2-1.52 0-2.62-1.16-2.62-2.75 0-1.61 1.25-3.25 3.63-3.25 2.01 0 4.37 1.28 4.37 4.88 0 2.06-1.6 5.12-6 5.12z"/><path fill="#7cb342" d="m18 29.63-1-1.63c1-1.25 1-3.34 1-4h3.13c0 1.13-1.23 4.04-3.13 5.63zm10-.25a1 1 0 0 1-.8-.42l-1-1.37a1 1 0 1 1 1.6-1.18l1 1.38a1 1 0 0 1-.8 1.59zm2.88-6.88h-3.63c0 2.88 4.44 5.22 4.75 5.5l2.2-.74c-.86-.77-3.08-2.26-3.33-4.76z"/><path fill="#fff" d="M43.3 8.72c-2.2-1.5-5.68-.59-7.78 2.05-2.1 2.64-2.01 6 .18 7.5 2.2 1.51 5.68.6 7.78-2.04 2.1-2.64 2.02-6-.18-7.5z"/><path fill="#e0e0e0" d="M38.15 19.99a4.93 4.93 0 0 1-5.09-4.28 7.32 7.32 0 0 1 1.68-5.56c2.41-3.04 6.5-4.04 9.12-2.25a4.93 4.93 0 0 1 2.08 3.4 7.33 7.33 0 0 1-1.68 5.55 8.05 8.05 0 0 1-6.1 3.14zm2.66-11c-1.54 0-3.29.87-4.5 2.4a5.34 5.34 0 0 0-1.27 4.02c.1.6.38 1.46 1.23 2.04 1.77 1.21 4.65.38 6.42-1.85a5.34 5.34 0 0 0 1.27-4.01 2.94 2.94 0 0 0-1.23-2.04 3.36 3.36 0 0 0-1.91-.56z"/><path d="M42 12a1 1 0 1 0 0 2 1 1 0 1 0 0-2Z"/><path fill="#9ccc65" d="M23 25c5.88 0 8-1 8-1 .5.5 1.5 1 3 1 4 0 8-3 8-4 0-1.38-2.63-6-6.25-6h-2.75l-7-3s-3.87-2-7-2c-4 0-12 2.48-12 19h3c.5-3.63 2.98-7 4-7 0 0 2 3 9 3z"/><path fill="#ff8a80" d="M4 32h-2a2 2 0 1 1 0-4h2v4z"/><path fill="#e0e0e0" d="M3 28h3v4h-3zm37 0-1 4 5-.89v-2.3z"/><path fill="#ffd54f" d="M39 32h-33v-4h34z"/><path fill="#424242" d="m47.53 29.52-3.53-.71v2.3l3.53-.63c.63-.12.63-.84 0-.96z"/><path fill="#fff" d="M30 5c-2.8 0-5 3.3-5 7.5s2.2 7.5 5 7.5 5-3.3 5-7.5-2.2-7.5-5-7.5z"/><path fill="#e0e0e0" d="M30 21c-3.36 0-6-3.73-6-8.5s2.64-8.5 6-8.5 6 3.73 6 8.5-2.64 8.5-6 8.5zm0-15c-2.17 0-4 2.98-4 6.5s1.83 6.5 4 6.5 4-2.98 4-6.5-1.83-6.5-4-6.5z"/><path d="M28.5 12a1.5 1.5 0 1 0 0 3 1.5 1.5 0 1 0 0-3Z"/><path fill="#7cb342" d="M16 28c-.36-.38-1-1-1-2 0-1.5 1.21-2.18 1.25-2.2a1.5 1.5 0 0 0-1.38-2.66c-.06.03-1.87.73-1.87 4.36 0 .75.4 1.88.94 2.5h2.06z"/><path fill="#7cb342" d="M15 33a1 1 0 0 1-.45-.1c-.1-.06-2.55-1.31-2.55-3.9 0-1.5 1.03-3 3-3v2c-.87 0-1 .63-1 1 0 1.34 1.44 2.1 1.45 2.1a1 1 0 0 1-.45 1.9zm9.84-3.61c.03-.07.75-1.29 1.1-1.83-.8-1.14-.96-3.2-.94-3.93a1.5 1.5 0 0 0-3 0c0 1.16.75 4.08 2.84 5.76z"/><path fill="#7cb342" d="M26 33a1 1 0 0 1-.7-.3 4.92 4.92 0 0 1-1.42-3.33c0-1.92 1.34-3.37 3.12-3.37a1 1 0 1 1 0 2c-.56 0-1.13.42-1.13 1.38 0 .85.53 1.6.84 1.91a1 1 0 0 1-.71 1.71zm8.5-1c-.38 0-.6-.45-.62-.48a1 1 0 0 0-1.88.48c0 .8.67 2 2.5 2a2.62 2.62 0 0 0 2.45-1.8c.02-.07.01-.14.02-.2h-2.47zm2.47-4c0-.06 0-.13-.02-.2-.23-.66-1-1.8-2.45-1.8-1.83 0-2.5 1.2-2.5 2a1 1 0 0 0 1.88.48c.02-.03.24-.48.62-.48h2.47z"/></svg>