<svg width="14" height="19" viewBox="0 0 14 19" fill="none" xmlns="http://www.w3.org/2000/svg">
<path d="M0.147427 6.77137C1.33801 8.75746 2.27816 10.8767 2.94743 13.0829C3.44848 14.5206 3.92006 15.9583 4.33269 17.3097C4.74532 18.6611 7.28006 17.856 7.56006 16.749C8.00882 14.5664 8.56953 12.4071 9.24006 10.2794C9.76234 8.56673 10.4024 6.8904 11.1558 5.26179C11.5049 4.52088 11.8986 3.80077 12.3348 3.10524C12.5131 2.8292 12.71 2.56504 12.9243 2.3145L13.2632 1.92632C13.2632 1.92632 13.7053 1.53814 13.4401 1.7538C13.9411 1.33686 14.3095 0.675522 13.6464 0.229835C13.2813 0.0505705 12.8718 -0.0243056 12.465 0.0138542C12.0582 0.052014 11.6708 0.201653 11.3474 0.44549C9.32409 2.38606 7.84717 4.80233 7.05901 7.46147C6.09697 10.0357 5.30448 12.6673 4.68637 15.3401C4.55374 15.9008 4.42111 16.4615 4.30322 17.0222L7.53059 16.4615C7.08848 15.0238 6.58743 13.5861 6.0569 12.1484C5.3398 9.83101 4.35079 7.60219 3.10953 5.50619C2.35795 4.3129 -0.707309 5.46306 0.147427 6.77137Z" fill="#FF59C1"/>
</svg>
